<svg xmlns="http://www.w3.org/2000/svg" width="38.752" height="20.001" viewBox="0 0 38.752 20.001"><g transform="translate(-0.577 -0.8)"><path d="M2.93,2.621H8.05C5.516,8.324,3.117,13.464.583,19.14c-.107.214,1.227,1.687,1.253,1.66C4.69,14.482,9.7,3.5,10.4,1.844,10.636,1.2,10.4.8,9.73.8H3.89Z" transform="translate(0 0)" fill="#1d51a1"/><g transform="translate(7.623 3.611)"><path d="M102.4,20.189a9.2,9.2,0,0,1,2.587-5.864c1.707-2.008,3.467-3.025,5.226-3.025a1.655,1.655,0,0,1,1.893,1.874,4.879,4.879,0,0,1-2.4,3.963,10.586,10.586,0,0,1-5.227,2.008,4.947,4.947,0,0,0-.133,1.1c0,1.714.8,2.6,2.427,2.6a5.91,5.91,0,0,0,3.76-1.58,11.989,11.989,0,0,0,3.093-3.882l.373.268a11.316,11.316,0,0,1-3.413,4.418,7.321,7.321,0,0,1-4.48,1.66,3.771,3.771,0,0,1-2.773-.991,3.554,3.554,0,0,1-.933-2.544Zm2.24-1.606a15.118,15.118,0,0,0,4.133-2.3,4.269,4.269,0,0,0,1.973-3.293c0-.482-.213-.7-.64-.7q-1.44,0-3.12,2.008a11.345,11.345,0,0,0-2.347,4.284Z" transform="translate(-82.294 -11.3)" fill="#1d51a1"/><path d="M27.613,25.444a3.42,3.42,0,0,0,1.067.214,22.612,22.612,0,0,1,3.387-6.078c1.493-1.955,2.693-2.945,3.573-2.945.507,0,.773.4.773,1.178a15.007,15.007,0,0,1-.96,4.15c-.64,1.9-.987,2.892-.987,2.918,0,.187.187.348.533.455a3.469,3.469,0,0,0,1.013.161c.747-1.553,1.227-2.49,1.467-2.865,1.12-1.714,1.947-2.918,2.507-3.588s1.04-.991,1.52-.991c.587,0,.88.375.88,1.1a9.126,9.126,0,0,1-.453,2.062,9.144,9.144,0,0,0-.453,2.329,2.379,2.379,0,0,0,.533,1.606,1.86,1.86,0,0,0,1.547.643,3.994,3.994,0,0,0,3.067-1.606,13.1,13.1,0,0,0,2.24-3.882l-.373-.428c-1.493,3.213-2.853,4.819-4.133,4.819-.613,0-.907-.348-.907-1.044a10.6,10.6,0,0,1,.56-2.436,10.251,10.251,0,0,0,.56-2.7c0-1.312-.587-1.981-1.76-1.981-1.653,0-3.36,1.58-5.093,4.739a11.44,11.44,0,0,0,.96-4.337c0-1.553-.56-2.329-1.653-2.329A4.763,4.763,0,0,0,33.8,16.314a22.523,22.523,0,0,0-3.227,4.123,16.257,16.257,0,0,0,.8-3.507c0-.535-.267-.8-.827-.8a1.846,1.846,0,0,0-1.413.643A12.749,12.749,0,0,1,28.6,19.9c-.347,1.285-.72,2.436-1.067,3.454S27,24.908,27,24.988c0,.161.213.321.613.455Z" transform="translate(-27 -13.716)" fill="#1d51a1"/></g></g></svg>