<?xml version="1.0" encoding="UTF-8"?><svg id="Layer_1" xmlns="http://www.w3.org/2000/svg" width="106.31mm" height="110.25mm" xmlns:xlink="http://www.w3.org/1999/xlink" viewBox="0 0 301.35 312.52"><defs><style>.cls-1{fill:#fff;}.cls-1,.cls-2,.cls-3,.cls-4{fill-rule:evenodd;}.cls-5{fill:#d93a27;}.cls-2{fill:#213368;}.cls-3{fill:#f7c917;}.cls-6{clip-path:url(#clippath);}.cls-7{fill:none;}.cls-4{fill:#ffcb05;}</style><clipPath id="clippath"><rect class="cls-7" width="301.35" height="312.52"/></clipPath></defs><polygon class="cls-5" points="0 0 0 52.41 150.96 312.52 301.35 52.41 301.35 0 0 0"/><path class="cls-3" d="M17.14,45.13H283.93V16.88H17.14v28.25Zm266.56,7.59H17.37l133.41,227.53L283.69,52.72Zm-132.89,244.35L8.64,52.13V8.21H292.42V52.13l-141.62,244.95Z"/><g class="cls-6"><path class="cls-3" d="M217.19,126.21c-15.81,30.95-66.6,59.22-66.6,59.22,0,0-50.77-28.27-66.59-59.21-9.15-17.9-13.3-49.81-13.3-49.81,0,0,24.3,5.02,39.99,4.5,15.8-.52,39.9-7.22,39.9-7.22,0,0,25.3,6.9,41.87,7.22,14.93,.28,38.01-4.5,38.01-4.5,0,0-4.14,31.89-13.28,49.79m-19.33-52.75c-18.72,.32-47.31-8.16-47.31-8.16,0,0-27.21,8.15-45.08,8.15-17.9,0-45.18-8.15-45.18-8.15,0,0,3.67,40.1,15.03,62.42,17.81,34.99,75.23,66.89,75.23,66.89,0,0,57.43-31.91,75.24-66.91,11.35-22.31,15.01-62.39,15.01-62.39,0,0-25.9,7.87-42.95,8.16"/><path class="cls-1" d="M221.6,85.03s-5.04,26.27-13.03,41.03c-14.54,26.86-58.52,52.04-58.52,52.04,0,0-43.97-25.18-58.51-52.02-8-14.77-13.05-41.05-13.05-41.05,0,0,22.26,3.65,36.5,2.59,13.96-1.03,35.06-7.7,35.06-7.7,0,0,22.16,6.81,36.79,7.7,13.57,.82,34.76-2.6,34.76-2.6"/><path class="cls-3" d="M31.72,41.72c2.02,0,4.1-.14,5.81-.99,1.9-.9,2.75-2.46,2.79-4.57v-9.34c0-2.02-.41-4.08-2.94-5.21-2.12-.93-4.98-.99-7.38-.99h-7.1v21.1h8.82Zm-2.28-17.29c3.21,.06,4.29,.2,4.33,2.67v6.88c.11,2.81,.08,4.16-4.33,3.93v-13.47Z"/><polygon class="cls-3" points="43.61 41.72 43.61 20.62 58.6 20.62 58.6 24.82 50.15 24.82 50.15 28.73 58.34 28.73 58.34 32.93 50.15 32.93 50.15 37.52 59.05 37.52 59.05 41.72 43.61 41.72"/><path class="cls-3" d="M67.16,34.65v1.49c0,1.21,.52,2.27,2.61,2.27,1.52,0,2.19-1.04,2.19-2.11,0-1.77-1.93-2.44-3.64-3.23-2.01-.87-3.72-1.68-4.95-2.75-1.19-1.07-1.9-2.36-1.9-4.21,0-3.97,3.17-6.01,8.22-6.01,5.69,0,8.59,2.88,8.3,6.85h-6.03c-.07-1.24,0-2.92-2.15-3.03-1.34-.08-2.12,.48-2.26,1.4-.19,1.26,.67,1.91,1.97,2.58,2.45,1.18,4.57,1.91,6.1,2.98,1.53,1.07,2.42,2.47,2.42,5.03,0,4.05-2.98,6.32-8.42,6.32-5.99,0-8.52-2.55-8.52-5.33v-2.25h6.07Z"/><path class="cls-3" d="M89.99,41.72c5.34,0,8.53-1.84,8.53-6.12,0-2.61-.63-3.74-3.61-5.03v-.06c2.25-.93,3.14-2.59,3.14-4.43,0-4.25-3.86-5.46-8.81-5.46h-8.48v21.1h9.22Zm-2.68-17.29c2.3,0,4.2-.08,4.2,1.98,0,2.48-1.34,2.35-4.2,2.48v-4.47Zm0,8.28c2.8,.08,4.67,.03,4.67,2.47,0,2.83-1.38,2.67-4.67,2.72v-5.19Z"/><path class="cls-3" d="M107.93,33.39h2.16c1.53,.08,2.05,.93,2.24,2.22,.18,1.29,.04,3.03,.15,4.89,.04,.42,.19,.81,.37,1.22h7.14v-.29c-.27-.2-.46-.45-.61-.73-.37-1.35-.41-4.97-.6-6.66-.11-1.46-1.42-2.43-3.25-2.74v-.06c2.76-.96,3.47-2.56,3.47-4.8,0-4.19-2.68-5.83-8.06-5.83h-9.56v21.1h6.54v-8.32Zm0-8.96c3.21-.06,4.59,.06,4.59,2.55,0,1.29-.45,2.6-2.35,2.6h-2.24v-5.15Z"/><path class="cls-3" d="M127.47,41.72l.78-4.12h5.14l.93,4.12h6.63l-6.07-21.11h-7.9l-6.11,21.11h6.6Zm5.29-7.85h-3.8l1.9-9.43h.07l1.83,9.43Z"/><polygon class="cls-3" points="146.35 41.72 140.29 20.62 146.84 20.62 150.19 35.42 150.26 35.42 153.61 20.62 160.16 20.62 154.06 41.72 146.35 41.72"/><path class="cls-3" d="M166.13,41.72l.78-4.12h5.14l.93,4.12h6.63l-6.07-21.11h-7.9l-6.11,21.11h6.59Zm5.29-7.85h-3.8l1.9-9.43h.07l1.83,9.43Z"/><path class="cls-3" d="M190.46,41.72c2.02,0,4.1-.14,5.81-.99,1.89-.9,2.75-2.46,2.79-4.57v-9.34c0-2.02-.41-4.08-2.94-5.21-2.12-.93-4.99-.99-7.38-.99h-7.1v21.1h8.82Zm-2.28-17.29c3.21,.06,4.3,.2,4.33,2.67v6.88c.11,2.81,.07,4.16-4.33,3.93v-13.47Z"/><path class="cls-3" d="M219.85,26.42c0-4.05-3.08-6.31-8.82-6.31s-8.93,2.26-8.93,6.31v8.57c0,4.75,2.3,7.24,8.93,7.24s8.82-2.49,8.82-7.24v-8.57Zm-6.54,8.99c0,1.21-.15,3-2.28,3s-2.39-1.8-2.39-3v-8.65c0-1.29,.26-2.84,2.36-2.84s2.32,1.55,2.32,2.84v8.65Z"/><path class="cls-3" d="M229.43,33.39h2.16c1.53,.08,2.05,.93,2.23,2.22,.19,1.29,.04,3.03,.15,4.89,.04,.42,.18,.81,.37,1.22h7.15v-.29c-.27-.2-.46-.45-.61-.73-.37-1.35-.41-4.97-.6-6.66-.11-1.46-1.42-2.43-3.25-2.74v-.06c2.76-.96,3.47-2.56,3.47-4.8,0-4.19-2.68-5.83-8.05-5.83h-9.57v21.1h6.54v-8.32Zm0-8.96c3.21-.06,4.59,.06,4.59,2.55,0,1.29-.45,2.6-2.35,2.6h-2.24v-5.15Z"/><polygon class="cls-3" points="243.77 41.72 243.77 20.62 258.76 20.62 258.76 24.82 250.31 24.82 250.31 28.73 258.5 28.73 258.5 32.93 250.31 32.93 250.31 37.52 259.21 37.52 259.21 41.72 243.77 41.72"/><path class="cls-3" d="M267.31,34.65v1.49c0,1.21,.52,2.27,2.61,2.27,1.52,0,2.19-1.04,2.19-2.11,0-1.77-1.93-2.44-3.64-3.23-2.01-.87-3.72-1.68-4.95-2.75-1.19-1.07-1.9-2.36-1.9-4.21,0-3.97,3.16-6.01,8.22-6.01,5.69,0,8.59,2.88,8.29,6.85h-6.03c-.08-1.24,0-2.92-2.15-3.03-1.34-.08-2.12,.48-2.27,1.4-.18,1.26,.67,1.91,1.97,2.58,2.45,1.18,4.57,1.91,6.09,2.98,1.53,1.07,2.42,2.47,2.42,5.03,0,4.05-2.98,6.32-8.41,6.32-6,0-8.53-2.55-8.53-5.33v-2.25h6.07Z"/><path class="cls-3" d="M31.72,41.72c2.02,0,4.1-.14,5.81-.99,1.9-.9,2.75-2.46,2.79-4.57v-9.34c0-2.02-.41-4.08-2.94-5.21-2.12-.93-4.98-.99-7.38-.99h-7.1v21.1h8.82Zm-2.28-17.29c3.21,.06,4.29,.2,4.33,2.67v6.88c.11,2.81,.08,4.16-4.33,3.93v-13.47Z"/><polygon class="cls-3" points="43.61 41.72 43.61 20.62 58.6 20.62 58.6 24.82 50.15 24.82 50.15 28.73 58.34 28.73 58.34 32.93 50.15 32.93 50.15 37.52 59.05 37.52 59.05 41.72 43.61 41.72"/><path class="cls-3" d="M67.16,34.65v1.49c0,1.21,.52,2.27,2.61,2.27,1.52,0,2.19-1.04,2.19-2.11,0-1.77-1.93-2.44-3.64-3.23-2.01-.87-3.72-1.68-4.95-2.75-1.19-1.07-1.9-2.36-1.9-4.21,0-3.97,3.17-6.01,8.22-6.01,5.69,0,8.59,2.88,8.3,6.85h-6.03c-.07-1.24,0-2.92-2.15-3.03-1.34-.08-2.12,.48-2.26,1.4-.19,1.26,.67,1.91,1.97,2.58,2.45,1.18,4.57,1.91,6.1,2.98,1.53,1.07,2.42,2.47,2.42,5.03,0,4.05-2.98,6.32-8.42,6.32-5.99,0-8.52-2.55-8.52-5.33v-2.25h6.07Z"/><path class="cls-3" d="M89.99,41.72c5.34,0,8.53-1.84,8.53-6.12,0-2.61-.63-3.74-3.61-5.03v-.06c2.25-.93,3.14-2.59,3.14-4.43,0-4.25-3.86-5.46-8.81-5.46h-8.48v21.1h9.22Zm-2.68-17.29c2.3,0,4.2-.08,4.2,1.98,0,2.48-1.34,2.35-4.2,2.48v-4.47Zm0,8.28c2.8,.08,4.67,.03,4.67,2.47,0,2.83-1.38,2.67-4.67,2.72v-5.19Z"/><path class="cls-3" d="M107.93,33.39h2.16c1.53,.08,2.05,.93,2.24,2.22,.18,1.29,.04,3.03,.15,4.89,.04,.42,.19,.81,.37,1.22h7.14v-.29c-.27-.2-.46-.45-.61-.73-.37-1.35-.41-4.97-.6-6.66-.11-1.46-1.42-2.43-3.25-2.74v-.06c2.76-.96,3.47-2.56,3.47-4.8,0-4.19-2.68-5.83-8.06-5.83h-9.56v21.1h6.54v-8.32Zm0-8.96c3.21-.06,4.59,.06,4.59,2.55,0,1.29-.45,2.6-2.35,2.6h-2.24v-5.15Z"/><path class="cls-3" d="M127.47,41.72l.78-4.12h5.14l.93,4.12h6.63l-6.07-21.11h-7.9l-6.11,21.11h6.6Zm5.29-7.85h-3.8l1.9-9.43h.07l1.83,9.43Z"/><polygon class="cls-3" points="146.35 41.72 140.29 20.62 146.84 20.62 150.19 35.42 150.26 35.42 153.61 20.62 160.16 20.62 154.06 41.72 146.35 41.72"/><path class="cls-3" d="M166.13,41.72l.78-4.12h5.14l.93,4.12h6.63l-6.07-21.11h-7.9l-6.11,21.11h6.59Zm5.29-7.85h-3.8l1.9-9.43h.07l1.83,9.43Z"/><path class="cls-3" d="M190.46,41.72c2.02,0,4.1-.14,5.81-.99,1.89-.9,2.75-2.46,2.79-4.57v-9.34c0-2.02-.41-4.08-2.94-5.21-2.12-.93-4.99-.99-7.38-.99h-7.1v21.1h8.82Zm-2.28-17.29c3.21,.06,4.3,.2,4.33,2.67v6.88c.11,2.81,.07,4.16-4.33,3.93v-13.47Z"/><path class="cls-3" d="M219.85,26.42c0-4.05-3.08-6.31-8.82-6.31s-8.93,2.26-8.93,6.31v8.57c0,4.75,2.3,7.24,8.93,7.24s8.82-2.49,8.82-7.24v-8.57Zm-6.54,8.99c0,1.21-.15,3-2.28,3s-2.39-1.8-2.39-3v-8.65c0-1.29,.26-2.84,2.36-2.84s2.32,1.55,2.32,2.84v8.65Z"/><path class="cls-3" d="M229.43,33.39h2.16c1.53,.08,2.05,.93,2.23,2.22,.19,1.29,.04,3.03,.15,4.89,.04,.42,.18,.81,.37,1.22h7.15v-.29c-.27-.2-.46-.45-.61-.73-.37-1.35-.41-4.97-.6-6.66-.11-1.46-1.42-2.43-3.25-2.74v-.06c2.76-.96,3.47-2.56,3.47-4.8,0-4.19-2.68-5.83-8.05-5.83h-9.57v21.1h6.54v-8.32Zm0-8.96c3.21-.06,4.59,.06,4.59,2.55,0,1.29-.45,2.6-2.35,2.6h-2.24v-5.15Z"/><polygon class="cls-3" points="243.77 41.72 243.77 20.62 258.76 20.62 258.76 24.82 250.31 24.82 250.31 28.73 258.5 28.73 258.5 32.93 250.31 32.93 250.31 37.52 259.21 37.52 259.21 41.72 243.77 41.72"/><path class="cls-3" d="M267.31,34.65v1.49c0,1.21,.52,2.27,2.61,2.27,1.52,0,2.19-1.04,2.19-2.11,0-1.77-1.93-2.44-3.64-3.23-2.01-.87-3.72-1.68-4.95-2.75-1.19-1.07-1.9-2.36-1.9-4.21,0-3.97,3.16-6.01,8.22-6.01,5.69,0,8.59,2.88,8.29,6.85h-6.03c-.08-1.24,0-2.92-2.15-3.03-1.34-.08-2.12,.48-2.27,1.4-.18,1.26,.67,1.91,1.97,2.58,2.45,1.18,4.57,1.91,6.09,2.98,1.53,1.07,2.42,2.47,2.42,5.03,0,4.05-2.98,6.32-8.41,6.32-6,0-8.53-2.55-8.53-5.33v-2.25h6.07Z"/><path class="cls-3" d="M128.45,210.34v-1.04c0-1.39-.54-2.1-1.32-2.1-1.27-.02-1.57,.63-1.57,1.69l-.02,8.04c0,.91,.39,1.45,1.46,1.45,1.39,0,1.5-1.34,1.5-2.34v-1.47h4.11v1.99c0,2.79-1.73,4.75-5.9,4.75-3.78,0-5.26-1.87-5.26-5.18v-6.67c0-3.53,1.75-5.18,5.51-5.18,3.5,0,5.61,1.39,5.61,4.7v1.36h-4.11Z"/><polygon class="cls-3" points="134.36 220.92 134.36 204.66 138.47 204.66 138.47 217.66 143.48 217.66 143.48 220.92 134.36 220.92"/><path class="cls-3" d="M144.84,204.66h4.11v12.27c0,.78,.25,1.45,1.42,1.45,1.07,0,1.39-.87,1.39-1.56v-12.16h4.11v11.77c0,2.75-1.33,4.88-5.53,4.88-3.47,0-5.5-1.54-5.5-4.88v-11.77Z"/><path class="cls-3" d="M163.63,220.92c3.31,0,5.32-1.41,5.32-4.69,0-2.01-.4-2.88-2.27-3.87v-.04c1.45-.72,2.01-2,2.01-3.44,0-3.28-2.43-4.21-5.54-4.21h-5.33v16.26h5.8Zm-1.68-13.33c1.45,0,2.64-.06,2.64,1.55,0,1.94-.84,1.83-2.64,1.94v-3.49Zm0,6.41c1.74,.07,2.9,.03,2.9,1.9,0,2.18-.86,2.05-2.9,2.1v-4Z"/><polygon class="cls-3" points="170.84 220.92 170.84 204.66 180.24 204.66 180.24 207.92 174.95 207.92 174.95 210.91 180.07 210.91 180.07 214.17 174.95 214.17 174.95 217.66 180.52 217.66 180.52 220.92 170.84 220.92"/><path class="cls-4" d="M128.45,210.34v-1.04c0-1.39-.54-2.1-1.32-2.1-1.27-.02-1.57,.63-1.57,1.69l-.02,8.04c0,.91,.39,1.45,1.46,1.45,1.39,0,1.5-1.34,1.5-2.34v-1.47h4.11v1.99c0,2.79-1.73,4.75-5.9,4.75-3.78,0-5.26-1.87-5.26-5.18v-6.67c0-3.53,1.75-5.18,5.51-5.18,3.5,0,5.61,1.39,5.61,4.7v1.36h-4.11Z"/><polygon class="cls-4" points="134.36 220.92 134.36 204.66 138.47 204.66 138.47 217.66 143.48 217.66 143.48 220.92 134.36 220.92"/><path class="cls-4" d="M144.84,204.66h4.11v12.27c0,.78,.25,1.45,1.42,1.45,1.07,0,1.39-.87,1.39-1.56v-12.16h4.11v11.77c0,2.75-1.33,4.88-5.53,4.88-3.47,0-5.5-1.54-5.5-4.88v-11.77Z"/><path class="cls-4" d="M163.63,220.92c3.31,0,5.32-1.41,5.32-4.69,0-2.01-.4-2.88-2.27-3.87v-.04c1.45-.72,2.01-2,2.01-3.44,0-3.28-2.43-4.21-5.54-4.21h-5.33v16.26h5.8Zm-1.68-13.33c1.45,0,2.64-.06,2.64,1.55,0,1.94-.84,1.83-2.64,1.94v-3.49Zm0,6.41c1.74,.07,2.9,.03,2.9,1.9,0,2.18-.86,2.05-2.9,2.1v-4Z"/><polygon class="cls-4" points="170.84 220.92 170.84 204.66 180.24 204.66 180.24 207.92 174.95 207.92 174.95 210.91 180.07 210.91 180.07 214.17 174.95 214.17 174.95 217.66 180.52 217.66 180.52 220.92 170.84 220.92"/><polygon class="cls-2" points="118.46 142.61 120.13 142.02 243.8 83.58 114.01 127.73 112.84 128.29 108.57 110.76 112.65 103.96 88.87 110.76 97.7 114.84 103.79 132.58 88.19 139.98 83.43 133.18 75.96 135.22 87.51 163.76 94.98 160.36 93.63 151.53 109.87 145.7 120.13 163.76 118.09 172.59 136.43 161.72 126.92 157.64 118.46 142.61"/></g></svg>