<?xml version="1.0" encoding="UTF-8"?><svg id="Layer_1" xmlns="http://www.w3.org/2000/svg" width="169.52mm" height="116.06mm" viewBox="0 0 480.52 329"><defs><style>.cls-1{fill:#2e61ae;}</style></defs><path class="cls-1" d="M239.45,76.1c-10.64,5.42-20.05,12.92-27.72,21.92h15.67c3.36-8.24,7.41-15.63,12.06-21.92Z"/><path class="cls-1" d="M273.13,67.3c-11.98,3.19-22.73,14.55-30.43,30.73h30.43v-30.73Z"/><path class="cls-1" d="M79.85,142.31h97.59c.77-5.72,2.03-11.29,3.69-16.68h14.58c-1.94,5.34-3.43,10.91-4.32,16.68h25.95c.45-5.74,1.19-11.3,2.17-16.68h14.2c-1.1,5.36-1.94,10.93-2.46,16.68h41.89v-16.68h13.8v16.68h41.9c-.52-5.75-1.36-11.32-2.46-16.68h14.2c.98,5.38,1.72,10.94,2.16,16.68h25.96c-1.3-8.35-3.77-16.3-7.22-23.73-1.06-2.3-2.22-4.56-3.47-6.75H36.92v13.8h42.93v16.68Z"/><path class="cls-1" d="M348.34,98.03c-7.68-9.01-17.08-16.5-27.72-21.92,4.65,6.29,8.7,13.68,12.06,21.92h15.66Z"/><path class="cls-1" d="M286.94,67.3v30.73h30.43c-7.7-16.18-18.45-27.54-30.43-30.73Z"/><path class="cls-1" d="M475.53,0h-145.34c-14.53,0-27.96,3.45-38.17,10.91-4.93,3.6-8.94,8.25-11.84,13.7-2.9-5.45-6.91-10.11-11.84-13.7-10.18-7.46-23.64-10.91-38.17-10.91H84.83c-3.33,.1-4.97,2.88-4.99,4.99V98.03h114.51c18.65-27.42,50.09-45.47,85.68-45.47,57.1,0,103.55,46.45,103.55,103.55s-46.45,103.55-103.55,103.55c-35.58,0-66.97-18.06-85.62-45.46h17.41c7.66,8.99,17,16.51,27.63,21.92-4.64-6.28-8.69-13.68-12.05-21.92h15.35c7.69,16.17,18.41,27.53,30.39,30.73v-30.73h13.8v30.73c11.98-3.19,22.7-14.56,30.39-30.73h15.35c-3.36,8.24-7.41,15.63-12.05,21.92,12.98-6.61,24.08-16.34,32.47-28.13,.18-.25,.36-.5,.54-.75,1.55-2.22,3.03-4.49,4.38-6.85H36.91v13.8h42.93v79.91c0,2.61,2.37,4.98,4.99,4.98H230.17c12.13,0,23.19,1.64,31,5.61,7.81,3.98,12.56,9.64,14.02,19.94,.06,2.59,2.39,4.37,4.99,4.37s4.95-1.77,4.99-4.37c1.45-10.3,6.21-15.97,14.01-19.94,7.81-3.97,18.87-5.61,31-5.61h145.34c2.61,0,4.99-2.37,4.99-4.98V4.99c0-2.61-2.37-4.99-4.99-4.99Z"/><path class="cls-1" d="M79.85,186.59h101.23c-1.67-5.38-2.85-10.97-3.62-16.68h13.96c.9,5.75,2.29,11.34,4.23,16.68h23.84c-.98-5.37-1.68-10.96-2.13-16.68h13.89c.52,5.73,1.32,11.32,2.43,16.68h39.46v-16.68h13.8v16.68h39.47c1.1-5.36,1.91-10.95,2.43-16.68h13.89c-.46,5.72-1.15,11.31-2.13,16.68h23.84c2.69-7.41,4.4-15.26,5.04-23.43,.2-2.33,.32-4.68,.32-7.06H0v13.8H79.85v16.68Z"/></svg>