<?xml version="1.0" encoding="utf-8"?>
<!-- Generator: Adobe Illustrator 22.1.0, SVG Export Plug-In . SVG Version: 6.00 Build 0)  -->
<svg version="1.1" xmlns="http://www.w3.org/2000/svg" xmlns:xlink="http://www.w3.org/1999/xlink" x="0px" y="0px"
	 viewBox="0 0 601 404" style="enable-background:new 0 0 601 404;" xml:space="preserve">
<style type="text/css">
	.st0{fill:#FFD200;}
	.st1{fill-rule:evenodd;clip-rule:evenodd;fill:#13B5EA;}
	.st2{fill-rule:evenodd;clip-rule:evenodd;}
</style>
<g>
	<g>
		<path class="st0" d="M303.2,36.7v336.7c96.3,0,258.6-50.7,258.6-174.4C561.8,81.7,354.8,21.3,303.2,36.7z"/>
		<path class="st1" d="M303.2,373.9V32C179.1,32,43.5,98.4,43.5,202.5C43.5,304.1,162,373.9,303.2,373.9z"/>
	</g>
	<g>
		<path class="st2" d="M443.5,203.7c-6.1-15.4,33.4-6.9,44.2-15.6h-75.3v10c-1.3-2.2-3.6-3.7-6.4-3.7c-4.3,0-7.5,3.3-7.5,7.4
			c0,0.8,0.2,1.5,0.4,2.3l-49.7-3.2l-7.7-7v22.9l7.7-8l30.2-2.8l10.9,11.6h111l13.1-13.8H443.5z M400.6,210.9l-13.1-5.8l11.3-1
			c1,3,3.7,5.2,7.1,5.2c2.8,0,5.1-1.6,6.4-3.9v0.9C408.9,210.4,405.2,211.9,400.6,210.9z"/>
		<path class="st2" d="M465,155.9c-6.1-15.6,33.2-6.9,44.2-15.7h-75.5v9.9c-1.3-2.2-3.7-3.6-6.4-3.6c-4.1,0-7.5,3.4-7.5,7.5
			c0,0.8,0.2,1.5,0.4,2.3l-49.5-3.2l-7.7-7.2v23.1l7.7-8l30.1-2.8l10.9,11.6h111.2l13.1-13.8H465z M422.1,163.2l-13.2-5.8l11.3-1
			c1,3,3.8,5.2,7.1,5.2c2.7,0,5-1.5,6.4-3.6v0.7C430.4,162.7,426.7,164.1,422.1,163.2z"/>
		<path class="st2" d="M424,252.4c-6.1-15.6,33.4-6.9,44.2-15.7h-75.5v9.8c-1.3-2.1-3.6-3.6-6.4-3.6c-4.1,0-7.4,3.4-7.4,7.5
			c0,0.8,0.2,1.5,0.4,2.3l-49.7-3.3l-7.7-7.2v23.1l7.7-8l30.1-2.8l11,11.6l111-0.2l13.1-13.6H424z M381.1,259.7l-13.1-5.8l11.3-1
			c1,3,3.7,5.2,7,5.2c2.8,0,5.1-1.4,6.4-3.6v0.5C389.4,259.2,385.6,260.6,381.1,259.7z"/>
	</g>
	<path d="M300.9,29.3c-145.1,0-263.1,78.1-263.1,174.1c0,96,118,174.1,263.1,174.1S564,299.4,564,203.4
		C564,107.4,446,29.3,300.9,29.3z M284.7,37.4c-6.3,7.3-12.2,15.1-17.5,23.5h-25c10.2-8,21.4-15.7,33.6-23
		C278.7,37.7,281.7,37.5,284.7,37.4z M242.4,112.6c-2.1,6-3.9,12.1-5.6,18.2h-56c12.5-22.8,30.9-44.9,55.5-65.2h27.9
		c-5.5,9.1-10.5,18.8-14.8,28.9h-17.3v18.1H242.4z M173.5,135.3c-0.2,0.4-0.4,0.8-0.6,1.2c-10.2,21.1-15.7,42.7-16.4,64h-3.3v-56.2
		h-22.9v56.2H90.6c1.9-21.6,11.1-43.7,27.5-65.2H173.5z M121.6,130.8c18.7-22.9,45.7-44.9,81.4-65.2h26.2
		c-23.8,20.4-41.5,42.4-53.5,65.2H121.6z M196.6,204.9l1.4,14.9h-5.4h-5.6l1.6-14.9H196.6z M189.2,200.4l1.8-16.5
		c0.4-3.7,0.8-7.1,1.2-10.6c0.2-2.1,0.4-4.1,0.6-6.2c0-1.3,0.2-2.5,0.2-3.7c0.4,5.6,0.8,9.6,1,12.5c0.2,2.7,0.6,5.4,0.8,7.7
		l1.6,16.7H189.2z M130.2,204.9v27.8c0,3.7-0.6,6.4-1.3,7.9c-0.8,1.7-2.3,2.5-4.2,2.5c-1.5,0-2.9-1-3.7-2.5
		c-0.8-1.7-1.4-4.4-1.4-7.9v-14.3H97.1v9.3c0,12.1,2.3,21.2,6.9,27.4c4.6,6.2,11.6,9.3,20.6,9.3c9.5,0,16.6-3.1,21.4-9.1
		c4.8-6.2,7.1-15.4,7.1-27.6v-22.8h3.2c0,2.1,0,4.2,0.1,6.4c0.4,11.7,2.2,23.3,5.4,34.6l-2.6,16.7h8.3c0.9,2.2,1.9,4.5,2.9,6.7
		h-61.1c-12-18.5-18.4-37.8-18.9-57.4c-0.1-2.3,0-4.6,0-6.9H130.2z M160.8,204.9h7.4l-4.6,29.2c-1.5-7.6-2.4-15.3-2.7-23.1
		C160.8,209.1,160.8,207,160.8,204.9z M172.5,274c1.6,3.3,3.3,6.5,5.2,9.7c11.5,19.9,27.5,38.5,47.8,55h-34.8
		c-28.8-15.6-51.6-33.1-68.1-51.8c-3.7-4.2-7.1-8.5-10.2-12.9H172.5z M181.7,281.4c-1.4-2.5-2.8-4.9-4.1-7.4h57.8
		c6,23,15.2,44.9,27.9,64.7h-30.5C210.8,321.6,193.6,302.2,181.7,281.4z M175.3,269.3c-1-2.2-2-4.4-3-6.7h9.9l2.3-21.4h8.1h7.5
		l2.3,21.4h24.3l-8.9-57.7h9c-0.1,21.7,2.3,43.4,7.4,64.4H175.3z M217.2,200.4l-8.7-56.2h-15.8h-14.8l-8.9,56.2h-8.1
		c0.8-20.6,6-41.5,15.9-61.9c0.5-1.1,1.1-2.2,1.6-3.3h57.2c-5.3,21.1-8.3,43.1-8.7,65.2H217.2z M265.9,38.6
		c-11.2,7.1-21.6,14.5-31,22.2h-23.4c13.6-7.3,28.3-14.4,44.2-21.2C259.1,39.3,262.5,38.9,265.9,38.6z M239.6,41.9
		c-13.4,6.1-25.8,12.4-37.4,18.9h-32.7C191,52.4,214.6,46,239.6,41.9z M158.2,65.5h35.8c-34.4,20.3-60.5,42.4-78.4,65.2H71.3
		C91,104.4,121.2,81.9,158.2,65.5z M68.1,135.3h44.2c-15.7,21.5-24.4,43.5-26.2,65.2H45.7C46.4,177.3,54.3,155.2,68.1,135.3z
		 M45.7,204.9h40.1c-0.1,2.4-0.1,4.7-0.1,7.1c0.5,19.5,6.6,38.8,18.1,57.3H66.6C53.5,249.5,46,227.8,45.7,204.9z M69.9,274h37
		c3.7,5.4,7.8,10.7,12.4,15.9c15.5,17.5,36.3,34,62.1,48.8h-28.7C117.2,322.1,88.6,299.9,69.9,274z M162.7,343.1h26.7
		c13.8,7.4,29,14.4,45.5,20.9C209,359.5,184.7,352.4,162.7,343.1z M256.7,367.2c-21.1-7.3-40.3-15.3-57.5-24h31.9
		c12,9.2,25.5,17.7,40.3,25.4C266.5,368.2,261.6,367.8,256.7,367.2z M283.2,369.3l-2-0.9c-15.6-7.6-29.7-16-42.3-25.2h27.5
		c6.4,9.3,13.5,18.2,21.6,26.3C286.3,369.4,284.7,369.4,283.2,369.3z M292.6,367.6c-7.6-7.6-14.5-15.8-20.7-24.5h20.7V367.6z
		 M292.6,338.7h-23.8C255.7,319,246.2,297,240.1,274h52.5V338.7z M292.6,269.3h-53.6c-5.1-20.9-7.6-42.7-7.5-64.4h61.2V269.3z
		 M292.6,200.4h-61.1c0.5-22.1,3.5-44.2,8.9-65.2h52.2V200.4z M292.6,130.8h-51c1.7-6.2,3.6-12.3,5.7-18.2h45.3V130.8z M292.6,94.4
		h-38.1c4.5-10.1,9.5-19.8,15.2-28.9h23V94.4z M292.6,60.9h-20c5.6-8.5,11.7-16.4,18.4-23.7c0.5,0,1.1,0,1.6,0V60.9z M310.5,369.6
		v-257H369V94.4h-58.5V37.2c136.3,3.3,245.7,76.6,245.7,166.2C556.2,293,446.9,366.3,310.5,369.6z"/>
</g>
</svg>
